<svg xmlns="http://www.w3.org/2000/svg" width="256" height="256" viewBox="0 0 256 256"><path d="M 128,0C57.3,0 0,57.3 0,128 0,198.6 57.3,256 128,256 198.6,256 256,198.6 256,128 256,57.3 198.6,0 128,0zm 0,8c66.1,0 120,53.8 120,120.1 0,33.2 -13.5,63.3 -35.5,84.8 -1.2,-22.9 -4.4,-45.7 -4.2,-68.6 -1.2,-12.8 -11.9,-23.4 -24.6,-24.8 -11.1,-4.4 -27,-8.5 -29.4,-22.3 1.1,-16.6 2.1,-36.6 -11.7,-48.5 -9.8,-12 19.8,-8.9 19,-16.9 -12.7,-1.9 -23.1,9.3 -35.9,6C115.4,35.1 104,37.4 95.1,38.1 95.4,29.7 108.6,25.6 108.9,19.9 95.7,20.1 92.7,36.8 85.3,45.1 77.2,54.2 69.2,67.2 77,79c0.9,5.7 3.6,30.3 11.1,16.2 2.8,8.9 4,23.1 -5,30C72.5,132.6 58.8,138.6 57.3,153.3 51.5,175.6 52.1,198.7 52.5,221.6 25.3,199.5 8,165.8 8,128.1 8,61.8 61.7,8 128,8zm -15.4,32.4c5.7,-0 11.5,0.6 16.9,1.9 -4.4,9.2 8.9,1.1 10.5,9.5 7.9,8.4 12.2,20.5 9.2,32 -1.7,11.4 2.5,24.3 9.4,31.6 -12,13 -23.9,26.2 -37.1,38.2l-0.7,-0.4 -1.5,-1.1c-10.5,-7.9 -21.1,-15.9 -32.7,-22 5.8,-9.7 10.5,-19.5 10.1,-31.1 1.4,-13.6 5.5,15.1 10,1.1 2.5,-3.5 4.5,-22.7 -0.9,-11.5 -1.2,3.7 -3.3,12.7 -3.7,3.1 -3.2,-9.8 -9.6,9.2 -10.9,-2.3 -6,-0.2 -7.9,7.6 -7.9,-2.9 -2.9,-13.6 -4.9,-31.6 8.4,-40.2 6.2,-4 13.5,-5.7 20.9,-5.8zm 3.6,19.8 0,0c-1.6,0 -3.5,0.7 -5.6,2.3 -3.6,3.6 0.1,12.4 5.5,11.4 10.3,-1.3 7.4,-13.9 0,-13.8zm -1.2,5.1c2.8,-0.1 7.8,2.5 0.3,4.3 -3,-3 -2,-4.2 -0.3,-4.3zm 24,2.3c-1.4,-0 -2.2,1.7 0,5.5 6,8.6 -24.7,14.6 -8,14.9 7.7,-1.8 16.3,-4.7 11.6,-15.1 -0.1,-3.4 -2.1,-5.3 -3.5,-5.3zm 8,10.1c-0.6,0 -1.4,1.5 -2.1,5 0.8,8.5 -21,7.1 -7.5,10.5 1.5,0 3.1,0 4.6,-0.1 8,0.4 7.3,-15.7 4.9,-15.4zm 17.3,39.6c10.7,4.3 22,7.8 32.2,12.7 9.2,9.3 10.1,25.8 2.7,36.5 -8.3,14.9 -16.3,30.2 -25.6,44.5 -9,11.7 -22.5,20.4 -26.8,35.1 0,0 -0,0.1 -0,0.1C140.6,247.5 134.3,248 128,248c-3,0 -6,-0 -9,-0.2 3.9,-6.9 19.1,-15.7 15,-21.7 -8.2,5.6 -13.9,16.2 -22,21.1 -0.9,-0.1 -1.7,-0.2 -2.6,-0.3 -4.9,-12.2 5,-21.2 12.6,-29.5C140,197 160.7,179.7 178.6,159.8c3,-2.8 15,-15.2 7.6,-14.9 -25.4,27.8 -52.4,54.3 -79.7,80 -4.9,5.6 -24.7,-2.1 -14.8,11.5 1.9,2.1 3.3,4.9 3.6,7.1 -9,-2.5 -17.7,-6.1 -25.7,-10.6 0.3,-6.7 0.7,-13.5 0.7,-20.1 31,-32.1 63,-63.3 94.1,-95.3l-0,-0zm -80.9,16.9 0,0c2.3,-0 4.9,0.7 7,2.9 9.7,5.6 18.3,12.7 27,19.8 -14.6,16.5 -30.9,31.4 -46.8,46.6 1.5,-19.1 4.3,-38.3 3.6,-57.5 -1,-6.4 3.7,-11.6 9,-11.9zm 79.6,0.4c-2.8,0.4 -10.2,9.4 -12.6,11 -20.2,19 -39.9,38.7 -58.3,59.5 0,1.5 -2,5.5 1.2,4.6 22.8,-24.8 47.2,-48.1 70.7,-72.3 0.4,-2.2 0,-3 -0.9,-2.9l-0,0zm -92.9,4.2c-1.8,30.4 -3.8,60.9 -5,91.3 -2.9,-1.7 -5.7,-3.6 -8.4,-5.6 -0,-19.4 0.5,-38.8 1.8,-58.1 2.1,-9.7 3.1,-21.1 11.6,-27.5zm 12.4,2.5c0,7.5 14.1,14.2 21,16 -1.6,-7.5 -14.6,-11.9 -21,-16zM 78.8,151.9c4.6,7.7 14.8,13.9 23.5,15.9C98.9,161.6 86.2,152.3 78.8,151.9zm 125.7,18.1c1.1,0 1.5,1.7 1.1,6 1.2,13.7 2.2,27.4 2.5,41.1 -7,6.3 -14.9,11.9 -23.2,16.4 -1.7,-7.5 -5.6,-15.6 -2.8,-23 1.5,-12.3 11.7,-20.7 15.8,-32 1.4,-3.8 4.6,-8.2 6.4,-8.2l0,-0.1zm -29.4,45.7 0.1,0c1.6,-0.1 3,3.7 3.3,8.3 1.8,3.9 2.4,8.2 1.8,12 -5,2.4 -10.3,4.6 -15.6,6.3 3.7,-7.1 11,-12.2 7,-20.9 1,-3.9 2.1,-5.6 3.1,-5.7 z" 
 fill="#545454" /></svg>