<svg xmlns="http://www.w3.org/2000/svg" width="256" height="256" viewBox="0 0 256 256" id="main">
<circle cx="128" cy="128" r="110" fill="#ddd" />
<path d="M 125.1 0L119.6 0.2L118.6 5.4L118.5 7.3L118.7 10.5L111.5 11.3L111 8.1L110.6 6.3L108.5 1.4L103 2.4L102.7 7.7L102.9 9.5L103.5 12.7L96.4 14.5L95.6 11.4L94.9 9.6L92.1 5L86.8 6.7L87.2 12L87.6 13.8L88.7 16.9L81.9 19.5L80.6 16.5L79.7 14.9L76.4 10.8L71.3 13.1L72.4 18.3L73 20.1L74.5 23L68.1 26.5L66.5 23.7L65.4 22.2L61.5 18.5L56.8 21.5L58.5 26.5L59.5 28.2L61.3 30.9L55.4 35.2L53.4 32.6L52.1 31.3L47.8 28.1L43.5 31.7L45.9 36.4L47 38L49.2 40.4L43.9 45.4L41.6 43.1L40.1 42L35.5 39.4L31.7 43.5L34.7 48L35.9 49.3L38.4 51.4L33.9 57.1L31.2 55.1L29.6 54.2L24.7 52.3L21.5 56.8L25 60.8L26.5 62L29.2 63.8L25.4 70L22.6 68.4L20.8 67.6L15.7 66.4L13.1 71.3L17.1 74.8L18.7 75.8L21.6 77.2L18.7 83.9L15.7 82.6L13.9 82.1L8.6 81.5L6.7 86.8L11.1 89.7L12.9 90.5L16 91.5L13.9 98.5L10.8 97.7L8.9 97.5L3.6 97.5L2.4 103L7.1 105.3L9 105.9L12.1 106.5L11 113.6L7.8 113.3L6 113.2L0.7 114L0.2 119.6L5.2 121.3L7.1 121.6L10.3 121.8L10.2 129L6.9 129L5 129.3L0 130.8L0.2 136.3L5.4 137.3L7.3 137.4L10.5 137.2L11.3 144.4L8.1 144.9L6.3 145.3L1.4 147.5L2.4 152.9L7.7 153.2L9.5 153L12.7 152.4L14.5 159.5L11.4 160.3L9.6 161L5 163.8L6.7 169.1L12 168.7L13.8 168.3L16.9 167.2L19.5 174L16.5 175.3L14.9 176.2L10.8 179.5L13.1 184.6L18.3 183.5L20.1 182.9L23 181.4L26.5 187.8L23.7 189.4L22.2 190.5L18.5 194.4L21.5 199.1L26.5 197.4L28.2 196.5L30.9 194.6L35.2 200.5L32.6 202.5L31.3 203.8L28.1 208.1L31.7 212.4L36.4 210L38 208.9L40.4 206.7L45.4 212L43.1 214.3L42 215.8L39.4 220.5L43.5 224.2L48 221.2L49.3 220L51.4 217.5L57.1 222L55.1 224.7L54.2 226.3L52.3 231.2L56.8 234.4L60.8 230.9L62 229.5L63.8 226.7L70 230.5L68.4 233.3L67.6 235.1L66.4 240.2L71.3 242.8L74.8 238.8L75.8 237.2L77.2 234.3L83.9 237.2L82.6 240.2L82.1 242L81.5 247.3L86.8 249.2L89.7 244.8L90.5 243L91.5 240L98.5 242L97.7 245.1L97.5 247L97.5 252.3L103 253.5L105.3 248.8L105.9 247L106.5 243.8L113.6 244.9L113.3 248.1L113.2 250L114 255.2L119.6 255.7L121.3 250.7L121.6 248.8L121.8 245.6L129 245.7L129 249L129.3 250.9L130.8 256L136.3 255.7L137.3 250.5L137.4 248.6L137.2 245.4L144.4 244.6L144.9 247.8L145.3 249.6L147.5 254.5L152.9 253.5L153.2 248.2L153 246.4L152.4 243.2L159.5 241.5L160.3 244.5L161 246.3L163.8 250.9L169.1 249.2L168.7 243.9L168.3 242.1L167.2 239L174 236.4L175.3 239.4L176.2 241L179.5 245.1L184.6 242.8L183.5 237.6L182.9 235.8L181.4 232.9L187.8 229.4L189.4 232.2L190.5 233.7L194.4 237.4L199.1 234.4L197.4 229.4L196.5 227.7L194.6 225L200.5 220.7L202.5 223.3L203.8 224.6L208.1 227.8L212.4 224.2L210 219.5L208.9 218L206.7 215.5L212 210.5L214.3 212.8L215.8 213.9L220.5 216.5L224.2 212.4L221.2 208L220 206.6L217.5 204.5L222 198.8L224.7 200.8L226.3 201.7L231.2 203.6L234.4 199.1L230.9 195.1L229.5 193.9L226.7 192.1L230.5 185.9L233.3 187.5L235.1 188.3L240.2 189.5L242.8 184.6L238.8 181.1L237.2 180.1L234.3 178.7L237.2 172L240.2 173.3L242 173.8L247.3 174.4L249.2 169.1L244.8 166.2L243 165.4L240 164.4L242 157.4L245.1 158.2L247 158.5L252.3 158.4L253.5 152.9L248.8 150.6L247 150L243.8 149.5L244.9 142.3L248.1 142.6L250 142.7L255.2 141.9L255.7 136.3L250.7 134.6L248.8 134.3L245.6 134.1L245.7 126.9L249 126.9L250.9 126.6L256 125.1L255.7 119.6L250.5 118.6L248.6 118.5L245.4 118.7L244.6 111.5L247.8 111L249.6 110.6L254.5 108.5L253.5 103L248.2 102.7L246.4 102.9L243.2 103.5L241.5 96.4L244.5 95.6L246.3 94.9L250.9 92.1L249.2 86.8L243.9 87.2L242.1 87.6L239 88.7L236.4 81.9L239.4 80.6L241 79.7L245.1 76.4L242.8 71.3L237.6 72.4L235.8 73L232.9 74.5L229.4 68.1L232.2 66.5L233.7 65.4L237.4 61.5L234.4 56.8L229.4 58.5L227.7 59.5L225 61.3L220.7 55.4L223.3 53.4L224.6 52.1L227.8 47.8L224.2 43.5L219.5 45.9L218 47L215.5 49.2L210.5 43.9L212.8 41.6L213.9 40.1L216.5 35.5L212.4 31.7L208 34.7L206.6 35.9L204.5 38.4L198.8 33.9L200.8 31.2L201.7 29.6L203.6 24.7L199.1 21.5L195.1 25L193.9 26.5L192.1 29.2L185.9 25.4L187.5 22.6L188.3 20.8L189.5 15.7L184.6 13.1L181.1 17.1L180.1 18.7L178.7 21.6L172 18.7L173.3 15.7L173.8 13.9L174.4 8.6L169.1 6.7L166.2 11.1L165.4 12.9L164.4 16L157.4 13.9L158.2 10.8L158.5 8.9L158.4 3.6L152.9 2.4L150.6 7.1L150 9L149.5 12.1L142.3 11L142.6 7.8L142.7 6L141.9 0.7L136.3 0.2L134.6 5.2L134.3 7.1L134.1 10.3L126.9 10.2L126.9 6.9L126.6 5L125.1 0zM 126.8 24C139 23.8 151.4 25.8 163.5 30.2C187.8 39.1 206.8 56 218.5 76.9L139.2 113.9C137.7 112.7 136 111.7 134.1 111C132.2 110.4 130.3 110 128.4 110L91.4 30.6C102.6 26.4 114.6 24.1 126.8 24zM 64.2 45.7L26.3 150C22.3 131.4 23.3 111.5 30.2 92.4C37.2 73.2 49.2 57.3 64.2 45.7zM 81 46.3L113.9 116.7C112.7 118.2 111.7 119.9 111 121.8C109.8 125.1 109.7 128.5 110.4 131.8L37.6 165.6L81 46.3zM 216.4 95.5L172.9 215L139 142.2C141.6 140.2 143.6 137.4 144.9 134.1C145.5 132.2 145.9 130.3 146 128.4L216.4 95.5zM 229.6 105.9C233.6 124.5 232.6 144.4 225.7 163.5C218.7 182.7 206.7 198.6 191.7 210.2L229.6 105.9zM 127.5 119C128.6 118.9 129.9 119.1 131 119.5C135.7 121.2 138.1 126.4 136.4 131C134.7 135.7 129.5 138.1 124.9 136.4C120.2 134.7 117.8 129.5 119.5 124.9C120.8 121.4 124 119.1 127.5 119zM 113.7 139C115.7 141.6 118.5 143.6 121.8 144.9C125.1 146.1 128.5 146.2 131.8 145.5L168.2 223.8C144.9 233.6 118 235 92.4 225.7C66.7 216.3 47 198 35.5 175.5L113.7 139z"
	  fill="#000" />
</svg>