<svg
   xmlns="http://www.w3.org/2000/svg"
   width="256"
   height="256">
  <rect
     fill="#ddd"
     width="258"
     height="258"
     x="-1"
     y="-1" />
  <path
     fill="#000"
     d="m 125.53903,16.00013 -4.86718,0.218745 -0.875,4.539062 -0.082,1.66797 0.21875,2.843755 -6.31641,0.683592 -0.41015,-2.816408 -0.41016,-1.613276 -1.85938,-4.238286 -4.78516,0.820316 -0.27344,4.648439 0.16407,1.640623 0.57422,2.789062 -6.20702,1.503908 -0.738285,-2.707031 -0.628899,-1.558592 -2.406254,-3.964848 -4.648437,1.476562 0.328125,4.621093 0.355468,1.585939 0.957032,2.707031 -5.933594,2.296878 -1.121094,-2.625001 -0.820312,-1.449224 -2.871094,-3.582031 -4.429687,2.050785 0.929688,4.511716 0.574219,1.558601 1.285156,2.54297 -5.578125,3.089838 -1.449219,-2.488277 -0.984375,-1.285162 -3.335937,-3.226562 -4.128906,2.597663 1.503907,4.402338 0.792968,1.476561 1.585938,2.324225 -5.140626,3.773439 -1.749999,-2.242194 -1.148438,-1.175776 -3.746093,-2.761724 -3.71875,3.117194 2.050781,4.156246 0.984375,1.339851 1.886719,2.1328 -4.59375,4.40235 -2.023438,-1.99609 -1.339844,-1.01172 -4.046874,-2.24219 -3.28125,3.60938 2.597656,3.85547 1.09375,1.17577 2.1875,1.85938 -3.992187,4.94923 -2.296875,-1.69532 -1.394531,-0.82032 -4.320312,-1.6953 -2.816406,3.96483 3.089843,3.5 1.257813,1.03908 2.40625,1.55859 -3.308594,5.44141 -2.460938,-1.39454 -1.558594,-0.65625 -4.484374,-1.09375 -2.269531,4.32031 3.527343,3.03516 1.394532,0.875 2.542968,1.23047 -2.542968,5.82422 -2.652344,-1.06641 -1.585937,-0.4375 -4.621094,-0.51953 -1.640624,4.59375 3.855468,2.57032 1.503906,0.68359 2.707031,0.875 -1.804687,6.125 -2.734375,-0.71093 -1.640625,-0.21876 -4.648437,0.0547 -1.039063,4.78516 4.15625,2.02344 1.585938,0.49218 2.789062,0.51953 -0.957031,6.28907 -2.84375,-0.32813 -1.613281,-0.0273 -4.621094,0.68359 -0.410156,4.86719 4.375,1.47657 1.640625,0.27343 2.84375,0.16407 -0.136719,6.34374 -2.871094,0.0273 -1.613281,0.19141 -4.457031,1.31253 0.21875,4.86719 4.539062,0.875 1.667969,0.0819 2.84375,-0.21875 0.683594,6.31641 -2.816407,0.41015 -1.613281,0.41016 -4.238281,1.85937 0.820312,4.78516 4.648438,0.27344 1.640625,-0.16406 2.789062,-0.57422 1.503906,6.20703 -2.707031,0.73828 -1.558593,0.62891 -3.964844,2.40625 1.476563,4.64843 4.621093,-0.32812 1.585938,-0.35547 2.70703,-0.95703 2.296876,5.93359 -2.625,1.1211 -1.449219,0.82031 -3.582031,2.87109 2.050781,4.4297 4.511719,-0.9297 1.558593,-0.57421 2.542969,-1.28515 3.089843,5.57812 -2.488281,1.44921 -1.285156,0.98438 -3.226562,3.33594 2.597656,4.12891 4.402343,-1.50391 1.476563,-0.79297 2.324218,-1.58594 3.773437,5.14063 -2.242187,1.75 -1.175781,1.14844 -2.761719,3.74609 3.117188,3.71875 4.156249,-2.05078 1.339844,-0.98437 2.132812,-1.88673 4.402344,4.59376 -1.996094,2.02344 -1.011718,1.33984 -2.242188,4.04687 3.609375,3.28125 3.855469,-2.59765 1.175781,-1.09375 1.859375,-2.1875 4.949218,3.99219 -1.695313,2.29687 -0.820312,1.39453 -1.695312,4.32031 3.964844,2.81641 3.499999,-3.08984 1.039063,-1.25781 1.558593,-2.40626 5.441406,3.3086 -1.394531,2.46094 -0.65625,1.55859 -1.09375,4.48437 4.320312,2.26954 3.035157,-3.52734 0.875,-1.39453 1.230468,-2.54297 5.824218,2.54297 -1.066406,2.65233 -0.4375,1.58594 -0.519531,4.6211 4.59375,1.64063 2.570312,-3.85547 0.683594,-1.50391 0.875,-2.70703 6.124999,1.80468 -0.71094,2.73438 -0.21874,1.64062 0.0547,4.64844 4.78515,1.03906 2.02344,-4.15624 0.49218,-1.58594 0.51953,-2.78906 6.28907,0.95703 -0.32812,2.84374 -0.0273,1.61329 0.68359,4.62109 4.86719,0.41016 1.47656,-4.37501 0.27344,-1.64062 0.16406,-2.84374 6.34375,0.13671 0.0273,2.87109 0.19141,1.61329 1.3125,4.45703 4.86718,-0.21875 0.875,-4.53907 0.082,-1.66797 -0.21874,-2.84374 6.31641,-0.68359 0.41015,2.8164 0.41015,1.61328 1.85938,4.23829 4.78515,-0.82032 0.27344,-4.64844 -0.16406,-1.64062 -0.57421,-2.78906 6.20703,-1.50391 0.73827,2.70703 0.62891,1.55859 2.40626,3.96485 4.64842,-1.47656 -0.32812,-4.6211 -0.35547,-1.58593 -0.95703,-2.70704 5.93359,-2.29687 1.1211,2.625 0.82031,1.44921 2.87109,3.58203 4.4297,-2.05077 -0.9297,-4.51173 -0.57421,-1.55859 -1.28516,-2.54297 5.57813,-3.08984 1.4492,2.48828 0.98438,1.28515 3.33595,3.22657 4.12891,-2.59766 -1.50391,-4.40234 -0.79298,-1.47657 -1.58593,-2.32421 5.14062,-3.77344 1.75,2.24219 1.14843,1.17578 3.74609,2.76172 3.71876,-3.11719 -2.05079,-4.15625 -0.98437,-1.33985 -1.88672,-2.13281 4.59375,-4.40234 2.02344,1.99609 1.33984,1.01172 4.04688,2.24219 3.28124,-3.60938 -2.59765,-3.85547 -1.09375,-1.17578 -2.1875,-1.85937 3.99219,-4.94923 2.29688,1.69532 1.39453,0.82031 4.3203,1.69531 2.81641,-3.96484 -3.08984,-3.5 -1.25781,-1.03907 -2.40626,-1.55859 3.3086,-5.44141 2.46094,1.39453 1.55859,0.65626 4.48437,1.09374 2.26954,-4.3203 -3.52734,-3.03517 -1.39454,-0.875 -2.54296,-1.23047 2.54296,-5.82421 2.65234,1.06641 1.58594,0.4375 4.6211,0.51953 1.64062,-4.59376 -3.85546,-2.57031 -1.50391,-0.68359 -2.70703,-0.875 1.80468,-6.125 2.73438,0.71093 1.64062,0.21876 4.64844,-0.0547 1.03906,-4.78516 -4.15624,-2.02344 -1.58594,-0.49218 -2.78906,-0.51953 0.95703,-6.28907 2.84374,0.32813 1.61329,0.0273 4.62109,-0.68359 0.41015,-4.86718 -4.375,-1.47657 -1.64062,-0.27344 -2.84375,-0.16406 0.13672,-6.34375 2.87109,-0.0274 1.61329,-0.19141 4.45703,-1.3125 -0.21876,-4.86718 -4.53906,-0.875 -1.66797,-0.082 -2.84374,0.21876 -0.6836,-6.31641 2.81641,-0.41016 1.61328,-0.41016 4.23828,-1.85937 -0.82031,-4.78516 -4.64844,-0.27344 -1.64062,0.16407 -2.78907,0.57422 -1.5039,-6.20704 2.70703,-0.73828 1.55859,-0.6289 3.96485,-2.40626 -1.47657,-4.64843 -4.62109,0.32812 -1.58594,0.35547 -2.70703,0.95703 -2.29687,-5.93359 2.625,-1.1211 1.44921,-0.82031 3.58203,-2.8711 -2.05077,-4.42968 -4.51173,0.92968 -1.55859,0.57423 -2.54297,1.28515 -3.08984,-5.57812 2.48828,-1.44923 1.28515,-0.98437 3.22657,-3.33593 -2.59766,-4.12891 -4.40234,1.50391 -1.47657,0.79297 -2.32421,1.58592 -3.77344,-5.14062 2.24219,-1.75 1.17578,-1.14844 2.76172,-3.74609 -3.11719,-3.71875 -4.15625,2.05078 -1.33984,0.98438 -2.13282,1.88671 -4.40234,-4.59374 1.9961,-2.02344 1.01171,-1.33985 2.24219,-4.046868 -3.60937,-3.281255 -3.85547,2.597653 -1.17579,1.093755 -1.85936,2.187505 -4.94923,-3.992198 1.69532,-2.296869 0.8203,-1.394531 1.69532,-4.320316 -3.96485,-2.816409 -3.5,3.089847 -1.03906,1.257817 -1.55859,2.406245 -5.44141,-3.308592 1.39453,-2.460939 0.65626,-1.558593 1.09374,-4.484378 -4.3203,-2.269531 -3.03517,3.527348 -0.875,1.39453 -1.23046,2.54297 -5.82422,-2.54297 1.06641,-2.652347 0.4375,-1.585939 0.51953,-4.621092 -4.59375,-1.640623 -2.57031,3.85547 -0.68359,1.503899 -0.875,2.70704 -6.125,-1.804694 0.71093,-2.734377 0.21875,-1.640623 -0.0547,-4.64844 -4.78516,-1.039061 -2.02344,4.156255 -0.49219,1.585939 -0.51953,2.789062 -6.28906,-0.957031 0.32812,-2.843755 0.0273,-1.613323 -0.68359,-4.621093 -4.86719,-0.410163 -1.47657,4.375001 -0.27343,1.640632 -0.16407,2.843746 -6.34374,-0.136715 -0.0273,-2.871101 -0.19141,-1.613277 -1.31249,-4.457031 z m 1.42188,21.000004 c 10.67205,-0.127671 21.53477,1.630188 32.15625,5.496092 21.24296,7.731814 37.86485,22.559734 48.15234,40.824224 l -69.42578,32.37501 c -1.30405,-1.04275 -2.80113,-1.88558 -4.45703,-2.48828 -1.65589,-0.60269 -3.33468,-0.91761 -5.0039,-0.95703 L 96.007786,42.824349 c 9.810434,-3.689364 20.281074,-5.696545 30.953124,-5.824215 z M 72.246069,56.05873 39.050758,147.2775 C 35.518455,131.04479 36.394207,113.64769 42.49607,96.88296 48.597934,80.11822 59.105997,66.22317 72.246069,56.05873 z m 14.710936,0.49218 28.738285,61.60549 c -1.04275,1.30405 -1.88559,2.80113 -2.48829,4.45703 -1.05674,2.90339 -1.21424,5.91165 -0.60156,8.72266 L 48.949194,160.97672 86.957005,56.55091 z m 118.398435,43.09376 -38.00782,104.48049 -29.6953,-63.6836 c 2.2738,-1.75917 4.08467,-4.1535 5.14062,-7.0547 0.60269,-1.65588 0.91761,-3.33467 0.95703,-5.0039 l 61.60547,-28.73829 z m 11.59374,9.07813 c 3.53231,16.23269 2.65656,33.62981 -3.4453,50.39454 -6.10187,16.76474 -16.60993,30.65978 -29.75,40.82423 l 33.1953,-91.21877 z m -89.35936,11.40235 c 1.02162,-0.0523 2.09545,0.093 3.11718,0.46484 4.08696,1.48752 6.19066,6.03024 4.70313,10.11719 -1.48752,4.08696 -6.03024,6.19066 -10.11719,4.70312 -4.08695,-1.48753 -6.19066,-6.03024 -4.70312,-10.11718 1.11564,-3.06522 3.93512,-5.01128 7,-5.16797 z m -12.03125,17.52735 c 1.75916,2.27379 4.1535,4.08467 7.05469,5.14062 2.90338,1.05675 5.91165,1.21425 8.72265,0.60156 l 31.91015,68.49611 c -20.39459,8.57751 -43.93295,9.77725 -66.363274,1.61328 C 74.444409,205.33717 57.170617,189.27981 47.062476,169.59 l 68.496094,-31.9375 z"
     />
</svg>
